<svg id="visual" viewBox="0 0 900 900" width="900" height="900" xmlns="http://www.w3.org/2000/svg" xmlns:xlink="http://www.w3.org/1999/xlink" version="1.1"><rect x="0" y="0" width="900" height="900" fill="#efd81d"></rect><path d="M0 634L21.5 619.2C43 604.3 86 574.7 128.8 561.7C171.7 548.7 214.3 552.3 257.2 566.8C300 581.3 343 606.7 385.8 614.2C428.7 621.7 471.3 611.3 514.2 608.7C557 606 600 611 642.8 599C685.7 587 728.3 558 771.2 556.2C814 554.3 857 579.7 878.5 592.3L900 605L900 901L878.5 901C857 901 814 901 771.2 901C728.3 901 685.7 901 642.8 901C600 901 557 901 514.2 901C471.3 901 428.7 901 385.8 901C343 901 300 901 257.2 901C214.3 901 171.7 901 128.8 901C86 901 43 901 21.5 901L0 901Z" fill="#fde05d"></path><path d="M0 602L21.5 614.7C43 627.3 86 652.7 128.8 672.3C171.7 692 214.3 706 257.2 699.5C300 693 343 666 385.8 647C428.7 628 471.3 617 514.2 611C557 605 600 604 642.8 605.5C685.7 607 728.3 611 771.2 612.8C814 614.7 857 614.3 878.5 614.2L900 614L900 901L878.5 901C857 901 814 901 771.2 901C728.3 901 685.7 901 642.8 901C600 901 557 901 514.2 901C471.3 901 428.7 901 385.8 901C343 901 300 901 257.2 901C214.3 901 171.7 901 128.8 901C86 901 43 901 21.5 901L0 901Z" fill="#fee473"></path><path d="M0 749L21.5 747.5C43 746 86 743 128.8 728C171.7 713 214.3 686 257.2 686.7C300 687.3 343 715.7 385.8 715.2C428.7 714.7 471.3 685.3 514.2 675.7C557 666 600 676 642.8 685.7C685.7 695.3 728.3 704.7 771.2 714.7C814 724.7 857 735.3 878.5 740.7L900 746L900 901L878.5 901C857 901 814 901 771.2 901C728.3 901 685.7 901 642.8 901C600 901 557 901 514.2 901C471.3 901 428.7 901 385.8 901C343 901 300 901 257.2 901C214.3 901 171.7 901 128.8 901C86 901 43 901 21.5 901L0 901Z" fill="#fee887"></path><path d="M0 780L21.5 770.5C43 761 86 742 128.8 746.8C171.7 751.7 214.3 780.3 257.2 791.3C300 802.3 343 795.7 385.8 792.2C428.7 788.7 471.3 788.3 514.2 789.3C557 790.3 600 792.7 642.8 789.3C685.7 786 728.3 777 771.2 769.5C814 762 857 756 878.5 753L900 750L900 901L878.5 901C857 901 814 901 771.2 901C728.3 901 685.7 901 642.8 901C600 901 557 901 514.2 901C471.3 901 428.7 901 385.8 901C343 901 300 901 257.2 901C214.3 901 171.7 901 128.8 901C86 901 43 901 21.5 901L0 901Z" fill="#feec9b"></path><path d="M0 795L21.5 796.5C43 798 86 801 128.8 810.7C171.7 820.3 214.3 836.7 257.2 845.7C300 854.7 343 856.3 385.8 856.3C428.7 856.3 471.3 854.7 514.2 850.5C557 846.3 600 839.7 642.8 836C685.7 832.3 728.3 831.7 771.2 825.5C814 819.3 857 807.7 878.5 801.8L900 796L900 901L878.5 901C857 901 814 901 771.2 901C728.3 901 685.7 901 642.8 901C600 901 557 901 514.2 901C471.3 901 428.7 901 385.8 901C343 901 300 901 257.2 901C214.3 901 171.7 901 128.8 901C86 901 43 901 21.5 901L0 901Z" fill="#feefae"></path></svg>