<svg id="visual" viewBox="0 0 960 540" width="960" height="540" xmlns="http://www.w3.org/2000/svg" xmlns:xlink="http://www.w3.org/1999/xlink" version="1.1"><rect x="0" y="0" width="960" height="540" fill="#efd81d"></rect><path d="M0 380L22.8 371.2C45.7 362.3 91.3 344.7 137 336.8C182.7 329 228.3 331 274 339.7C319.7 348.3 365.3 363.7 411.2 368.2C457 372.7 503 366.3 548.8 364.7C594.7 363 640.3 366 686 358.8C731.7 351.7 777.3 334.3 823 333.2C868.7 332 914.3 347 937.2 354.5L960 362L960 541L937.2 541C914.3 541 868.7 541 823 541C777.3 541 731.7 541 686 541C640.3 541 594.7 541 548.8 541C503 541 457 541 411.2 541C365.3 541 319.7 541 274 541C228.3 541 182.7 541 137 541C91.3 541 45.7 541 22.8 541L0 541Z" fill="#fde05d"></path><path d="M0 361L22.8 368.7C45.7 376.3 91.3 391.7 137 403.5C182.7 415.3 228.3 423.7 274 419.7C319.7 415.7 365.3 399.3 411.2 387.8C457 376.3 503 369.7 548.8 366C594.7 362.3 640.3 361.7 686 362.5C731.7 363.3 777.3 365.7 823 366.8C868.7 368 914.3 368 937.2 368L960 368L960 541L937.2 541C914.3 541 868.7 541 823 541C777.3 541 731.7 541 686 541C640.3 541 594.7 541 548.8 541C503 541 457 541 411.2 541C365.3 541 319.7 541 274 541C228.3 541 182.7 541 137 541C91.3 541 45.7 541 22.8 541L0 541Z" fill="#fee473"></path><path d="M0 449L22.8 448C45.7 447 91.3 445 137 436C182.7 427 228.3 411 274 411.5C319.7 412 365.3 429 411.2 428.7C457 428.3 503 410.7 548.8 404.8C594.7 399 640.3 405 686 410.8C731.7 416.7 777.3 422.3 823 428.3C868.7 434.3 914.3 440.7 937.2 443.8L960 447L960 541L937.2 541C914.3 541 868.7 541 823 541C777.3 541 731.7 541 686 541C640.3 541 594.7 541 548.8 541C503 541 457 541 411.2 541C365.3 541 319.7 541 274 541C228.3 541 182.7 541 137 541C91.3 541 45.7 541 22.8 541L0 541Z" fill="#fee887"></path><path d="M0 468L22.8 462.2C45.7 456.3 91.3 444.7 137 447.5C182.7 450.3 228.3 467.7 274 474.3C319.7 481 365.3 477 411.2 474.8C457 472.7 503 472.3 548.8 473C594.7 473.7 640.3 475.3 686 473.3C731.7 471.3 777.3 465.7 823 461.2C868.7 456.7 914.3 453.3 937.2 451.7L960 450L960 541L937.2 541C914.3 541 868.7 541 823 541C777.3 541 731.7 541 686 541C640.3 541 594.7 541 548.8 541C503 541 457 541 411.2 541C365.3 541 319.7 541 274 541C228.3 541 182.7 541 137 541C91.3 541 45.7 541 22.8 541L0 541Z" fill="#feec9b"></path><path d="M0 477L22.8 477.8C45.7 478.7 91.3 480.3 137 486C182.7 491.7 228.3 501.3 274 506.7C319.7 512 365.3 513 411.2 513C457 513 503 512 548.8 509.5C594.7 507 640.3 503 686 500.8C731.7 498.7 777.3 498.3 823 494.7C868.7 491 914.3 484 937.2 480.5L960 477L960 541L937.2 541C914.3 541 868.7 541 823 541C777.3 541 731.7 541 686 541C640.3 541 594.7 541 548.8 541C503 541 457 541 411.2 541C365.3 541 319.7 541 274 541C228.3 541 182.7 541 137 541C91.3 541 45.7 541 22.8 541L0 541Z" fill="#feefae"></path></svg>