<svg id="visual" viewBox="0 0 900 675" width="900" height="675" xmlns="http://www.w3.org/2000/svg" xmlns:xlink="http://www.w3.org/1999/xlink" version="1.1"><rect x="0" y="0" width="900" height="675" fill="#efd81d"></rect><path d="M0 475L21.5 464C43 453 86 431 128.8 421.3C171.7 411.7 214.3 414.3 257.2 425.2C300 436 343 455 385.8 460.7C428.7 466.3 471.3 458.7 514.2 456.7C557 454.7 600 458.3 642.8 449.2C685.7 440 728.3 418 771.2 416.5C814 415 857 434 878.5 443.5L900 453L900 676L878.5 676C857 676 814 676 771.2 676C728.3 676 685.7 676 642.8 676C600 676 557 676 514.2 676C471.3 676 428.7 676 385.8 676C343 676 300 676 257.2 676C214.3 676 171.7 676 128.8 676C86 676 43 676 21.5 676L0 676Z" fill="#fde05d"></path><path d="M0 451L21.5 460.7C43 470.3 86 489.7 128.8 504.5C171.7 519.3 214.3 529.7 257.2 524.7C300 519.7 343 499.3 385.8 485C428.7 470.7 471.3 462.3 514.2 457.8C557 453.3 600 452.7 642.8 453.8C685.7 455 728.3 458 771.2 459.3C814 460.7 857 460.3 878.5 460.2L900 460L900 676L878.5 676C857 676 814 676 771.2 676C728.3 676 685.7 676 642.8 676C600 676 557 676 514.2 676C471.3 676 428.7 676 385.8 676C343 676 300 676 257.2 676C214.3 676 171.7 676 128.8 676C86 676 43 676 21.5 676L0 676Z" fill="#fee473"></path><path d="M0 561L21.5 559.8C43 558.7 86 556.3 128.8 545.2C171.7 534 214.3 514 257.2 514.7C300 515.3 343 536.7 385.8 536.3C428.7 536 471.3 514 514.2 506.7C557 499.3 600 506.7 642.8 513.8C685.7 521 728.3 528 771.2 535.7C814 543.3 857 551.7 878.5 555.8L900 560L900 676L878.5 676C857 676 814 676 771.2 676C728.3 676 685.7 676 642.8 676C600 676 557 676 514.2 676C471.3 676 428.7 676 385.8 676C343 676 300 676 257.2 676C214.3 676 171.7 676 128.8 676C86 676 43 676 21.5 676L0 676Z" fill="#fee887"></path><path d="M0 585L21.5 577.8C43 570.7 86 556.3 128.8 560C171.7 563.7 214.3 585.3 257.2 593.5C300 601.7 343 596.3 385.8 593.5C428.7 590.7 471.3 590.3 514.2 591.2C557 592 600 594 642.8 591.7C685.7 589.3 728.3 582.7 771.2 577C814 571.3 857 566.7 878.5 564.3L900 562L900 676L878.5 676C857 676 814 676 771.2 676C728.3 676 685.7 676 642.8 676C600 676 557 676 514.2 676C471.3 676 428.7 676 385.8 676C343 676 300 676 257.2 676C214.3 676 171.7 676 128.8 676C86 676 43 676 21.5 676L0 676Z" fill="#feec9b"></path><path d="M0 596L21.5 597.2C43 598.3 86 600.7 128.8 607.8C171.7 615 214.3 627 257.2 633.7C300 640.3 343 641.7 385.8 641.7C428.7 641.7 471.3 640.3 514.2 637.3C557 634.3 600 629.7 642.8 627C685.7 624.3 728.3 623.7 771.2 619C814 614.3 857 605.7 878.5 601.3L900 597L900 676L878.5 676C857 676 814 676 771.2 676C728.3 676 685.7 676 642.8 676C600 676 557 676 514.2 676C471.3 676 428.7 676 385.8 676C343 676 300 676 257.2 676C214.3 676 171.7 676 128.8 676C86 676 43 676 21.5 676L0 676Z" fill="#feefae"></path></svg>