<svg id="visual" viewBox="0 0 450 900" width="450" height="900" xmlns="http://www.w3.org/2000/svg" xmlns:xlink="http://www.w3.org/1999/xlink" version="1.1"><rect x="0" y="0" width="450" height="900" fill="#efd81d"></rect><path d="M0 634L10.7 619.2C21.3 604.3 42.7 574.7 64.2 561.7C85.7 548.7 107.3 552.3 128.8 566.8C150.3 581.3 171.7 606.7 193 614.2C214.3 621.7 235.7 611.3 257 608.7C278.3 606 299.7 611 321.2 599C342.7 587 364.3 558 385.8 556.2C407.3 554.3 428.7 579.7 439.3 592.3L450 605L450 901L439.3 901C428.7 901 407.3 901 385.8 901C364.3 901 342.7 901 321.2 901C299.7 901 278.3 901 257 901C235.7 901 214.3 901 193 901C171.7 901 150.3 901 128.8 901C107.3 901 85.7 901 64.2 901C42.7 901 21.3 901 10.7 901L0 901Z" fill="#fde05d"></path><path d="M0 602L10.7 614.7C21.3 627.3 42.7 652.7 64.2 672.3C85.7 692 107.3 706 128.8 699.5C150.3 693 171.7 666 193 647C214.3 628 235.7 617 257 611C278.3 605 299.7 604 321.2 605.5C342.7 607 364.3 611 385.8 612.8C407.3 614.7 428.7 614.3 439.3 614.2L450 614L450 901L439.3 901C428.7 901 407.3 901 385.8 901C364.3 901 342.7 901 321.2 901C299.7 901 278.3 901 257 901C235.7 901 214.3 901 193 901C171.7 901 150.3 901 128.8 901C107.3 901 85.7 901 64.2 901C42.7 901 21.3 901 10.7 901L0 901Z" fill="#fee473"></path><path d="M0 749L10.7 747.5C21.3 746 42.7 743 64.2 728C85.7 713 107.3 686 128.8 686.7C150.3 687.3 171.7 715.7 193 715.2C214.3 714.7 235.7 685.3 257 675.7C278.3 666 299.7 676 321.2 685.7C342.7 695.3 364.3 704.7 385.8 714.7C407.3 724.7 428.7 735.3 439.3 740.7L450 746L450 901L439.3 901C428.7 901 407.3 901 385.8 901C364.3 901 342.7 901 321.2 901C299.7 901 278.3 901 257 901C235.7 901 214.3 901 193 901C171.7 901 150.3 901 128.8 901C107.3 901 85.7 901 64.2 901C42.7 901 21.3 901 10.7 901L0 901Z" fill="#fee887"></path><path d="M0 780L10.7 770.5C21.3 761 42.7 742 64.2 746.8C85.7 751.7 107.3 780.3 128.8 791.3C150.3 802.3 171.7 795.7 193 792.2C214.3 788.7 235.7 788.3 257 789.3C278.3 790.3 299.7 792.7 321.2 789.3C342.7 786 364.3 777 385.8 769.5C407.3 762 428.7 756 439.3 753L450 750L450 901L439.3 901C428.7 901 407.3 901 385.8 901C364.3 901 342.7 901 321.2 901C299.7 901 278.3 901 257 901C235.7 901 214.3 901 193 901C171.7 901 150.3 901 128.8 901C107.3 901 85.7 901 64.2 901C42.7 901 21.3 901 10.7 901L0 901Z" fill="#feec9b"></path><path d="M0 795L10.7 796.5C21.3 798 42.7 801 64.2 810.7C85.7 820.3 107.3 836.7 128.8 845.7C150.3 854.7 171.7 856.3 193 856.3C214.3 856.3 235.7 854.7 257 850.5C278.3 846.3 299.7 839.7 321.2 836C342.7 832.3 364.3 831.7 385.8 825.5C407.3 819.3 428.7 807.7 439.3 801.8L450 796L450 901L439.3 901C428.7 901 407.3 901 385.8 901C364.3 901 342.7 901 321.2 901C299.7 901 278.3 901 257 901C235.7 901 214.3 901 193 901C171.7 901 150.3 901 128.8 901C107.3 901 85.7 901 64.2 901C42.7 901 21.3 901 10.7 901L0 901Z" fill="#feefae"></path></svg>